<svg width="289" height="204" viewBox="0 0 289 204" fill="none" xmlns="http://www.w3.org/2000/svg">
<path fill-rule="evenodd" clip-rule="evenodd" d="M71.5656 97.9882V166.679H1.18486V170.671H71.5656V195.244H77.5534V170.671H224V197.595H227.992V170.671H288.354V166.679H239.384V166.219H236.004V166.162L237.637 164.415C238.054 163.967 238.379 163.589 238.614 163.278C238.85 162.966 239.016 162.683 239.111 162.43C239.208 162.174 239.256 161.912 239.256 161.645C239.256 161.271 239.163 160.931 238.976 160.626C238.789 160.32 238.531 160.078 238.202 159.898C237.873 159.718 237.495 159.628 237.069 159.628C236.645 159.628 236.263 159.718 235.922 159.898C235.583 160.078 235.316 160.329 235.119 160.651C234.923 160.973 234.825 161.347 234.825 161.773H235.663C235.663 161.496 235.718 161.254 235.83 161.048C235.943 160.842 236.103 160.683 236.309 160.569C236.517 160.453 236.761 160.395 237.041 160.395C237.303 160.395 237.54 160.446 237.751 160.548C237.961 160.649 238.127 160.794 238.248 160.981C238.371 161.168 238.433 161.389 238.433 161.645C238.433 161.867 238.388 162.08 238.298 162.284C238.21 162.485 238.075 162.701 237.893 162.93C237.711 163.158 237.479 163.425 237.197 163.733L234.796 166.361V166.679H227.992V97.4499L272.619 52.8228L269.796 50.0001L225.8 93.9963H77.5534V30.3369H160.079V30.0915L160.261 30.2741L185.704 4.83132L182.882 2.00865L158.545 26.345H77.5534V0.0371094H71.5656V93.9963H0.0175171V97.9882H71.5656ZM224 98.5976V166.679H77.5534V98.5976H224ZM62.2174 30.5119V29.4519H63.0074V30.5119H66.8374V32.6719H66.0474V31.2219H59.2474V32.6719H58.4874V30.5119H62.2174ZM61.0257 33.2919C61.3157 32.7232 61.5891 32.1654 61.8174 31.6719L62.5974 31.8419C62.378 32.2926 62.1313 32.7874 61.8743 33.2919H67.0774V34.0019H65.2591C64.9408 35.1276 64.4416 35.9903 63.7621 36.6574C64.8726 37.1121 65.8958 37.6058 66.5974 38.0519L66.0374 38.6719C65.3423 38.2067 64.2866 37.676 63.1301 37.1868C62.0549 37.9556 60.6403 38.3925 58.8874 38.6719C58.8074 38.4919 58.5774 38.1619 58.4374 37.9919C60.0417 37.7931 61.3324 37.4533 62.3159 36.8558C61.6565 36.5983 60.9846 36.3612 60.3445 36.1627C60.2585 36.3145 60.1759 36.4581 60.0974 36.5919L59.3274 36.3819C59.7106 35.752 60.1902 34.8907 60.6578 34.0019H58.1974V33.2919H61.0257ZM61.5091 34.0019C61.2258 34.5472 60.9397 35.0855 60.6721 35.5738C61.4126 35.7877 62.2134 36.0578 62.9979 36.356C63.6579 35.7722 64.1246 35.0071 64.4014 34.0019H61.5091ZM63.6674 49.3819V50.2119H62.9374V42.3919H66.6674V50.1419H65.9074V49.3819H63.6674ZM65.9074 48.6619H63.6674V43.1019H65.9074V48.6619ZM60.8474 42.596C61.4704 42.4639 62.0546 42.3087 62.5274 42.1319L62.0174 41.5519C61.1474 41.9119 59.5574 42.2119 58.2274 42.3919C58.3174 42.5619 58.4074 42.8119 58.4474 42.9819C58.9735 42.9204 59.5393 42.8398 60.0974 42.7412V44.4119H58.1374V45.1119H59.9119C59.4615 46.3799 58.6476 47.7539 57.8974 48.5219C58.0274 48.7019 58.2174 49.0019 58.2974 49.2119C58.9456 48.5205 59.6041 47.3676 60.0974 46.1976V50.6419H60.8474V46.2342C61.283 46.798 61.8398 47.5548 62.0674 47.9319L62.5274 47.3219C62.2817 47.01 61.2321 45.7781 60.8474 45.3736V45.1119H62.5974V44.4119H60.8474V42.596ZM63.3374 62.2719V62.6319H62.6474V59.2767C62.449 59.3811 62.2486 59.4761 62.0474 59.5619C61.9726 59.4205 61.8217 59.217 61.6868 59.0719H60.6174V60.8617C61.0522 60.7605 61.4976 60.6557 61.9374 60.5519L62.0074 61.2219C61.2414 61.412 60.4534 61.6053 59.7239 61.7842L59.7236 61.7842C59.1487 61.9252 58.6102 62.0573 58.1474 62.1719L58.0074 61.4419C58.1681 61.4094 58.3423 61.373 58.5274 61.3333V57.8919H59.1574V61.1953C59.4066 61.1398 59.668 61.0805 59.9374 61.0188V56.9519H58.5274V53.8719H61.7774V56.5365C62.5666 55.7849 63.2283 54.6467 63.5974 53.4519L64.3174 53.6219C64.2208 53.9139 64.1109 54.2017 63.9895 54.4819H65.7974H65.9274L66.0674 54.4519L66.5474 54.6519C66.2204 55.6967 65.7021 56.5936 65.0685 57.3418C65.6931 57.9481 66.4608 58.4769 67.3674 58.8219C67.2074 58.9619 66.9974 59.2519 66.8974 59.4419C66.7887 59.3949 66.682 59.3454 66.5774 59.2935V62.6019H65.8574V62.2719H63.3374ZM65.8574 61.6119H63.3374V59.6819H65.8574V61.6119ZM66.0995 59.0319C65.5337 58.6924 65.036 58.2839 64.6056 57.8428C64.1353 58.3097 63.6188 58.7062 63.0807 59.0319H66.0995ZM64.5829 56.8229C65.0003 56.317 65.3532 55.749 65.609 55.1319H63.6806C63.6493 55.192 63.6176 55.2516 63.5854 55.3106C63.8316 55.8109 64.1647 56.331 64.5829 56.8229ZM63.2118 55.9367C63.4553 56.3918 63.763 56.8636 64.1355 57.3174C63.4607 57.9991 62.6697 58.5358 61.8674 58.8853V58.4019H60.6174V56.9519H61.7774V56.6473C61.9554 56.7686 62.192 56.9677 62.2974 57.0819C62.6197 56.7596 62.9284 56.3711 63.2118 55.9367ZM61.0774 54.5319H59.1974V56.2919H61.0774V54.5319ZM58.0774 70.3619V69.5419H67.2274V70.3619H58.0774ZM62.3174 82.5819V81.8919H66.0374H66.1774L66.3074 81.8619L66.7974 82.0519C66.4502 83.2417 65.863 84.1807 65.1121 84.9106C65.7307 85.3985 66.4711 85.7659 67.3174 85.9919C67.1374 86.1419 66.9274 86.4419 66.8174 86.6419C65.9394 86.3714 65.1794 85.9534 64.5426 85.4019C63.7839 85.9827 62.9024 86.3952 61.9574 86.6719C61.8774 86.4819 61.6974 86.1819 61.5474 86.0119C62.4432 85.7858 63.2898 85.4103 64.0124 84.8805C63.4707 84.2763 63.0442 83.5526 62.7374 82.7219L63.243 82.5819H62.3174ZM63.4028 82.5819C63.6743 83.2808 64.0669 83.8986 64.5681 84.4185C65.1042 83.9129 65.5423 83.3017 65.8406 82.5819H63.4028ZM59.5074 80.7619H61.8174V80.0519H59.5074V78.8997C60.4496 78.6732 61.4794 78.3609 62.2174 77.9919L61.5774 77.4619C61.0313 77.7714 60.0875 78.1057 59.206 78.3442L58.7974 78.2119V84.3215C58.495 84.3701 58.2156 84.4141 57.9674 84.4519L58.0974 85.1919L58.1034 85.1908L58.7974 85.0646V86.6419H59.5074V84.9353C60.3518 84.7813 61.2901 84.6097 62.1974 84.4419L62.1674 83.7519C61.2623 83.9106 60.333 84.0693 59.5074 84.2056V82.6819H61.9074V81.9719H59.5074V80.7619ZM65.1674 78.5419H63.5974V79.3119C63.5974 80.1319 63.3974 81.1219 62.3874 81.7519C62.2874 81.6119 62.0174 81.3419 61.8674 81.2419C62.7774 80.6919 62.8974 79.9619 62.8974 79.2919V77.8719H63.2374H63.5974H65.1674H65.5874H65.8774V80.3419C65.8774 80.5319 65.8874 80.6419 65.9374 80.6819C65.9674 80.7119 66.0174 80.7219 66.0974 80.7219H66.3774C66.4674 80.7219 66.5574 80.7119 66.5974 80.6819C66.6374 80.6619 66.6774 80.5819 66.6974 80.4619C66.7274 80.3219 66.7374 80.0019 66.7474 79.5919C66.8774 79.7219 67.1274 79.8319 67.3174 79.8919C67.2974 80.2919 67.2674 80.7319 67.2174 80.9019C67.1574 81.0619 67.0574 81.1719 66.9174 81.2319C66.8074 81.3019 66.6074 81.3319 66.4474 81.3319H65.9374C65.7374 81.3319 65.5074 81.2819 65.3674 81.1519C65.2274 81.0319 65.1674 80.8619 65.1674 80.3019V78.5419ZM116.821 101.884V102.944H113.091V105.104H113.851V103.654H120.651V105.104H121.441V102.944H117.611V101.884H116.821ZM116.421 104.104C116.193 104.597 115.92 105.155 115.629 105.724H112.801V106.434H115.262C114.794 107.322 114.314 108.184 113.931 108.814L114.701 109.024C114.745 108.949 114.79 108.872 114.836 108.792L114.906 108.669L114.948 108.595C115.588 108.793 116.26 109.03 116.92 109.288C115.936 109.885 114.645 110.225 113.041 110.424C113.181 110.594 113.411 110.924 113.491 111.104C115.244 110.824 116.659 110.387 117.734 109.619C118.89 110.108 119.946 110.639 120.641 111.104L121.201 110.484C120.5 110.038 119.476 109.544 118.366 109.089C119.045 108.422 119.545 107.559 119.863 106.434H121.681V105.724H116.478C116.735 105.219 116.982 104.724 117.201 104.274L116.421 104.104ZM115.276 108.006C115.544 107.517 115.83 106.979 116.113 106.434H119.005C118.728 107.439 118.262 108.204 117.602 108.788C116.817 108.49 116.016 108.219 115.276 108.006ZM128.271 110.644V109.814H130.511V110.574H131.271V102.824H127.541V110.644H128.271ZM128.271 109.094H130.511V103.534H128.271V109.094ZM127.131 102.564C126.658 102.74 126.074 102.896 125.451 103.028V104.844H127.201V105.544H125.451V105.805C125.836 106.21 126.885 107.442 127.131 107.754L126.671 108.364C126.444 107.987 125.887 107.23 125.451 106.666V111.074H124.701V106.629C124.208 107.799 123.549 108.952 122.901 109.644C122.821 109.434 122.631 109.134 122.501 108.954C123.251 108.186 124.065 106.812 124.516 105.544H122.741V104.844H124.701V103.173C124.143 103.272 123.577 103.352 123.051 103.414C123.011 103.244 122.921 102.994 122.831 102.824C124.161 102.644 125.751 102.344 126.621 101.984L127.131 102.564ZM137.941 111.064V110.704H140.461V111.034H141.181V107.725C141.286 107.777 141.392 107.827 141.501 107.874C141.601 107.684 141.811 107.394 141.971 107.254C141.065 106.909 140.297 106.38 139.672 105.774C140.306 105.025 140.824 104.129 141.151 103.084L140.671 102.884L140.531 102.914H140.401H138.593C138.715 102.633 138.825 102.346 138.921 102.054L138.201 101.884C137.832 103.079 137.17 104.217 136.381 104.968V102.304H133.131V105.384H134.541V109.451C134.272 109.512 134.01 109.572 133.761 109.627V106.324H133.131V109.765C132.946 109.805 132.772 109.841 132.611 109.874L132.751 110.604C133.212 110.49 133.748 110.358 134.32 110.218L134.328 110.216C135.057 110.037 135.845 109.844 136.611 109.654L136.541 108.984C136.101 109.088 135.656 109.192 135.221 109.293V107.504H136.291C136.425 107.649 136.576 107.852 136.651 107.994C136.852 107.908 137.053 107.813 137.251 107.708V111.064H137.941ZM137.941 110.044H140.461V108.114H137.941V110.044ZM139.209 106.275C139.64 106.716 140.137 107.124 140.703 107.464H137.684C138.223 107.138 138.739 106.742 139.209 106.275ZM140.213 103.564C139.957 104.181 139.604 104.749 139.187 105.255C138.769 104.763 138.435 104.243 138.189 103.742C138.221 103.683 138.253 103.624 138.284 103.564H140.213ZM138.739 105.749C138.367 105.295 138.059 104.824 137.816 104.368C137.532 104.803 137.223 105.191 136.901 105.514C136.796 105.399 136.559 105.2 136.381 105.079V105.384H135.221V106.834H136.471V107.317C137.273 106.968 138.064 106.431 138.739 105.749ZM133.801 102.964H135.681V104.724H133.801V102.964ZM142.681 105.974V106.794H151.831V105.974H142.681ZM156.921 106.324V107.014H157.847L157.341 107.154C157.648 107.984 158.074 108.708 158.616 109.312C157.894 109.842 157.047 110.218 156.151 110.444C156.301 110.614 156.481 110.914 156.561 111.104C157.506 110.827 158.388 110.414 159.146 109.834C159.783 110.385 160.543 110.803 161.421 111.074C161.531 110.874 161.741 110.574 161.921 110.424C161.075 110.198 160.335 109.83 159.716 109.342C160.467 108.612 161.054 107.673 161.401 106.484L160.911 106.294L160.781 106.324H160.641H156.921ZM159.172 108.85C158.671 108.33 158.278 107.713 158.007 107.014H160.444C160.146 107.733 159.708 108.345 159.172 108.85ZM156.421 105.194H154.111V106.404H156.511V107.114H154.111V108.637C154.937 108.501 155.866 108.342 156.771 108.184L156.801 108.874C155.894 109.041 154.956 109.213 154.111 109.367V111.074H153.401V109.496L152.702 109.624L152.701 109.624L152.571 108.884C152.819 108.846 153.099 108.802 153.401 108.753V102.644L153.81 102.776C154.691 102.537 155.635 102.203 156.181 101.894L156.821 102.424C156.083 102.793 155.053 103.105 154.111 103.331V104.484H156.421V105.194ZM158.201 102.974H159.771V104.734C159.771 105.294 159.831 105.464 159.971 105.584C160.111 105.714 160.341 105.764 160.541 105.764H161.051C161.211 105.764 161.411 105.734 161.521 105.664C161.661 105.604 161.761 105.494 161.821 105.334C161.871 105.164 161.901 104.724 161.921 104.324C161.731 104.264 161.481 104.154 161.351 104.024C161.341 104.434 161.331 104.754 161.301 104.894C161.281 105.014 161.241 105.094 161.201 105.114C161.161 105.144 161.071 105.154 160.981 105.154H160.701C160.621 105.154 160.571 105.144 160.541 105.114C160.491 105.074 160.481 104.964 160.481 104.774V102.304H160.191H159.771H158.201H157.841H157.501V103.724C157.501 104.394 157.381 105.124 156.471 105.674C156.621 105.774 156.891 106.044 156.991 106.184C158.001 105.554 158.201 104.564 158.201 103.744V102.974ZM165.309 102.912C165.608 102.914 165.906 102.971 166.204 103.082C166.503 103.193 166.775 103.378 167.021 103.636C167.267 103.892 167.465 104.241 167.614 104.684C167.763 105.126 167.838 105.681 167.838 106.349C167.838 106.995 167.776 107.569 167.653 108.071C167.532 108.571 167.357 108.992 167.128 109.336C166.9 109.679 166.623 109.939 166.297 110.117C165.972 110.294 165.605 110.383 165.196 110.383C164.789 110.383 164.425 110.303 164.106 110.142C163.788 109.978 163.528 109.752 163.324 109.463C163.123 109.172 162.994 108.835 162.937 108.451H163.804C163.882 108.785 164.037 109.061 164.269 109.279C164.503 109.494 164.812 109.602 165.196 109.602C165.757 109.602 166.2 109.357 166.524 108.867C166.851 108.377 167.014 107.684 167.014 106.789H166.957C166.825 106.988 166.667 107.16 166.485 107.304C166.303 107.449 166.1 107.56 165.878 107.638C165.655 107.716 165.418 107.755 165.167 107.755C164.751 107.755 164.368 107.652 164.02 107.446C163.675 107.238 163.398 106.953 163.189 106.59C162.983 106.226 162.88 105.809 162.88 105.34C162.88 104.895 162.98 104.488 163.179 104.119C163.38 103.747 163.662 103.451 164.024 103.231C164.388 103.011 164.817 102.904 165.309 102.912ZM165.309 103.693C165.011 103.693 164.742 103.767 164.503 103.916C164.267 104.063 164.078 104.262 163.939 104.513C163.801 104.762 163.733 105.037 163.733 105.34C163.733 105.644 163.799 105.919 163.932 106.168C164.066 106.414 164.25 106.611 164.482 106.757C164.716 106.902 164.983 106.974 165.281 106.974C165.506 106.974 165.715 106.93 165.91 106.843C166.104 106.753 166.273 106.631 166.417 106.477C166.564 106.321 166.679 106.144 166.762 105.948C166.845 105.749 166.886 105.542 166.886 105.326C166.886 105.042 166.817 104.776 166.68 104.527C166.545 104.279 166.358 104.077 166.119 103.924C165.882 103.77 165.612 103.693 165.309 103.693ZM171.606 110.383C171.071 110.383 170.616 110.238 170.239 109.946C169.863 109.653 169.575 109.228 169.376 108.671C169.177 108.113 169.078 107.438 169.078 106.647C169.078 105.861 169.177 105.19 169.376 104.634C169.578 104.075 169.866 103.649 170.243 103.355C170.622 103.059 171.076 102.912 171.606 102.912C172.137 102.912 172.59 103.059 172.967 103.355C173.345 103.649 173.634 104.075 173.833 104.634C174.034 105.19 174.135 105.861 174.135 106.647C174.135 107.438 174.035 108.113 173.837 108.671C173.638 109.228 173.35 109.653 172.974 109.946C172.597 110.238 172.141 110.383 171.606 110.383ZM171.606 109.602C172.137 109.602 172.549 109.346 172.842 108.835C173.136 108.323 173.283 107.594 173.283 106.647C173.283 106.018 173.215 105.481 173.08 105.039C172.948 104.596 172.756 104.259 172.505 104.027C172.256 103.795 171.957 103.679 171.606 103.679C171.081 103.679 170.67 103.938 170.374 104.456C170.078 104.972 169.93 105.703 169.93 106.647C169.93 107.277 169.997 107.812 170.129 108.252C170.262 108.693 170.452 109.028 170.701 109.257C170.952 109.487 171.254 109.602 171.606 109.602ZM175.811 103.074V103.744H177.761V105.094H175.191V105.774H177.671C177.059 106.752 176.082 107.572 175.011 108.094C175.181 108.234 175.461 108.524 175.581 108.654C176.181 108.314 176.774 107.876 177.301 107.361V109.744C177.301 110.684 177.681 110.904 179.021 110.904H181.981C183.121 110.904 183.391 110.574 183.511 109.314C183.301 109.264 182.981 109.164 182.801 109.034C182.731 110.044 182.631 110.214 181.951 110.214H179.021C178.191 110.214 178.031 110.134 178.031 109.744V109.024H181.971V107.153C182.544 107.741 183.215 108.234 183.901 108.544C184.021 108.344 184.261 108.044 184.441 107.894C183.386 107.495 182.339 106.679 181.71 105.774H184.291V105.094H181.661V103.744H183.691V103.074H181.661V101.884H180.911V103.074H178.501V101.884H177.761V103.074H175.811ZM178.501 105.094V103.744H180.911V105.094H178.501ZM178.539 105.774H180.919C181.095 106.079 181.302 106.379 181.535 106.664H178.031H177.935C178.16 106.383 178.363 106.085 178.539 105.774ZM181.251 107.294H178.031V108.384H181.251V107.294ZM118.854 156.083V155.023H119.644V156.083H123.474V158.243H122.684V156.793H115.884V158.243H115.124V156.083H118.854ZM117.662 158.863C117.952 158.294 118.226 157.736 118.454 157.243L119.234 157.413C119.015 157.863 118.768 158.358 118.511 158.863H123.714V159.573H121.896C121.577 160.698 121.078 161.561 120.399 162.228C121.509 162.683 122.533 163.177 123.234 163.623L122.674 164.243C121.979 163.777 120.923 163.247 119.767 162.757C118.692 163.526 117.277 163.963 115.524 164.243C115.444 164.063 115.214 163.733 115.074 163.563C116.678 163.364 117.969 163.024 118.953 162.426C118.293 162.169 117.621 161.932 116.981 161.733C116.895 161.885 116.813 162.029 116.734 162.163L115.964 161.953C116.347 161.323 116.827 160.461 117.294 159.573H114.834V158.863H117.662ZM118.146 159.573C117.863 160.118 117.576 160.656 117.309 161.145C118.049 161.358 118.85 161.629 119.635 161.927C120.295 161.343 120.761 160.578 121.038 159.573H118.146ZM130.304 162.953V163.783H129.574V155.963H133.304V163.713H132.544V162.953H130.304ZM132.544 162.233H130.304V156.673H132.544V162.233ZM127.484 156.167C128.107 156.035 128.691 155.879 129.164 155.703L128.654 155.123C127.784 155.483 126.194 155.783 124.864 155.963C124.954 156.133 125.044 156.383 125.084 156.553C125.61 156.491 126.176 156.411 126.734 156.312V157.983H124.774V158.683H126.549C126.098 159.951 125.284 161.325 124.534 162.093C124.664 162.273 124.854 162.573 124.934 162.783C125.582 162.091 126.241 160.938 126.734 159.768V164.213H127.484V159.805C127.92 160.369 128.476 161.125 128.704 161.503L129.164 160.893C128.918 160.581 127.869 159.349 127.484 158.944V158.683H129.234V157.983H127.484V156.167ZM139.974 163.843V164.203H139.284V160.847C139.086 160.952 138.885 161.047 138.684 161.133C138.609 160.991 138.458 160.788 138.323 160.643H137.254V162.432C137.689 162.331 138.134 162.226 138.574 162.123L138.644 162.793C137.881 162.982 137.096 163.175 136.369 163.353L136.36 163.355L136.353 163.357C135.781 163.497 135.245 163.628 134.784 163.743L134.644 163.013C134.805 162.98 134.979 162.944 135.164 162.904V159.463H135.794V162.766C135.874 162.748 135.955 162.73 136.038 162.711C136.13 162.691 136.223 162.67 136.317 162.648C136.402 162.629 136.488 162.609 136.574 162.589V158.523H135.164V155.443H138.414V158.107C139.203 157.356 139.865 156.217 140.234 155.023L140.954 155.193C140.858 155.485 140.748 155.772 140.626 156.053H142.434H142.564L142.704 156.023L143.184 156.223C142.857 157.267 142.339 158.164 141.705 158.913C142.33 159.519 143.098 160.048 144.004 160.393C143.844 160.533 143.634 160.823 143.534 161.013C143.425 160.966 143.319 160.916 143.214 160.864V164.173H142.494V163.843H139.974ZM142.494 163.183H139.974V161.253H142.494V163.183ZM142.736 160.603C142.17 160.263 141.673 159.855 141.242 159.413C140.772 159.88 140.255 160.277 139.717 160.603H142.736ZM141.22 158.394C141.637 157.888 141.99 157.32 142.246 156.703H140.317C140.286 156.763 140.254 156.822 140.222 156.881C140.468 157.382 140.801 157.902 141.22 158.394ZM139.848 157.507C140.092 157.962 140.4 158.434 140.772 158.888C140.097 159.57 139.306 160.106 138.504 160.456V159.973H137.254V158.523H138.414V158.218C138.592 158.339 138.829 158.538 138.934 158.653C139.256 158.33 139.565 157.942 139.848 157.507ZM137.714 156.103H135.834V157.863H137.714V156.103ZM144.714 159.933V159.113H153.864V159.933H144.714ZM158.954 160.153V159.463H162.674H162.814L162.944 159.433L163.434 159.623C163.087 160.812 162.5 161.751 161.749 162.481C162.367 162.969 163.108 163.337 163.954 163.563C163.774 163.713 163.564 164.013 163.454 164.213C162.576 163.942 161.816 163.524 161.179 162.973C160.421 163.553 159.539 163.966 158.594 164.243C158.514 164.053 158.334 163.753 158.184 163.583C159.08 163.356 159.926 162.981 160.649 162.451C160.107 161.847 159.681 161.123 159.374 160.293L159.88 160.153H158.954ZM160.04 160.153C160.311 160.852 160.704 161.469 161.205 161.989C161.741 161.484 162.179 160.872 162.477 160.153H160.04ZM156.144 158.333H158.454V157.623H156.144V156.47C157.086 156.244 158.116 155.932 158.854 155.563L158.214 155.033C157.668 155.342 156.724 155.676 155.843 155.915L155.434 155.783V161.892C155.132 161.941 154.852 161.985 154.604 162.023L154.734 162.763L155.434 162.635V164.213H156.144V162.506C156.988 162.352 157.927 162.18 158.834 162.013L158.804 161.323C157.899 161.481 156.97 161.64 156.144 161.776V160.253H158.544V159.543H156.144V158.333ZM161.804 156.113H160.234V156.883C160.234 157.703 160.034 158.693 159.024 159.323C158.924 159.183 158.654 158.913 158.504 158.813C159.414 158.263 159.534 157.533 159.534 156.863V155.443H159.874H160.234H161.804H162.224H162.514V157.913C162.514 158.103 162.524 158.213 162.574 158.253C162.604 158.283 162.654 158.293 162.734 158.293H163.014C163.104 158.293 163.194 158.283 163.234 158.253C163.274 158.233 163.314 158.153 163.334 158.033C163.364 157.893 163.374 157.573 163.384 157.163C163.514 157.293 163.764 157.403 163.954 157.463C163.934 157.863 163.904 158.303 163.854 158.473C163.794 158.633 163.694 158.743 163.554 158.803C163.444 158.873 163.244 158.903 163.084 158.903H162.574C162.374 158.903 162.144 158.853 162.004 158.723C161.864 158.603 161.804 158.433 161.804 157.873V156.113ZM167.584 163.423V156.15H166.703L164.885 157.357V158.252L166.661 157.073H166.703V163.423H167.584ZM170.879 163.281C171.246 163.441 171.664 163.522 172.133 163.522C172.604 163.522 173.024 163.432 173.393 163.252C173.763 163.072 174.054 162.826 174.267 162.513C174.482 162.199 174.59 161.843 174.59 161.448C174.59 160.986 174.461 160.599 174.203 160.287C173.945 159.972 173.586 159.777 173.127 159.701V159.644C173.494 159.533 173.784 159.333 173.997 159.044C174.213 158.755 174.32 158.406 174.32 157.996C174.32 157.653 174.234 157.334 174.061 157.038C173.888 156.742 173.641 156.504 173.319 156.324C172.997 156.142 172.611 156.05 172.161 156.05C171.742 156.05 171.357 156.131 171.007 156.292C170.659 156.453 170.377 156.678 170.162 156.967C169.947 157.253 169.832 157.587 169.817 157.968H170.67C170.682 157.727 170.757 157.521 170.897 157.35C171.037 157.177 171.217 157.046 171.437 156.956C171.659 156.864 171.896 156.817 172.147 156.817C172.415 156.817 172.647 156.868 172.843 156.97C173.042 157.072 173.196 157.214 173.305 157.396C173.414 157.579 173.468 157.793 173.468 158.039C173.468 158.295 173.405 158.517 173.28 158.707C173.157 158.896 172.985 159.043 172.765 159.147C172.547 159.251 172.294 159.303 172.005 159.303H171.423V160.084H172.005C172.374 160.084 172.687 160.143 172.942 160.258C173.198 160.374 173.392 160.535 173.525 160.741C173.657 160.945 173.724 161.181 173.724 161.448C173.724 161.704 173.655 161.929 173.518 162.123C173.38 162.317 173.191 162.468 172.95 162.577C172.708 162.686 172.431 162.741 172.119 162.741C171.839 162.741 171.585 162.695 171.355 162.602C171.125 162.51 170.94 162.38 170.798 162.212C170.656 162.041 170.575 161.839 170.556 161.604H169.661C169.68 161.986 169.796 162.321 170.009 162.609C170.225 162.896 170.515 163.12 170.879 163.281ZM177.19 163.273C177.523 163.439 177.899 163.522 178.315 163.522C178.777 163.522 179.189 163.418 179.551 163.209C179.913 162.999 180.197 162.712 180.403 162.35C180.612 161.986 180.716 161.571 180.716 161.107C180.716 160.636 180.615 160.217 180.414 159.85C180.215 159.483 179.941 159.194 179.59 158.984C179.242 158.771 178.846 158.664 178.401 158.664C178.157 158.664 177.922 158.703 177.697 158.781C177.473 158.859 177.286 158.958 177.136 159.076H177.094L177.349 156.931H180.389V156.15H176.611L176.17 159.729L176.994 159.829C177.146 159.72 177.339 159.631 177.573 159.562C177.808 159.491 178.036 159.457 178.259 159.459C178.569 159.462 178.844 159.535 179.086 159.68C179.327 159.824 179.517 160.022 179.654 160.273C179.794 160.521 179.864 160.804 179.864 161.121C179.864 161.432 179.796 161.71 179.661 161.956C179.529 162.2 179.345 162.392 179.111 162.531C178.879 162.671 178.614 162.741 178.315 162.741C177.944 162.741 177.624 162.634 177.357 162.421C177.091 162.206 176.942 161.933 176.909 161.604H176.057C176.076 161.974 176.186 162.303 176.387 162.592C176.588 162.88 176.856 163.108 177.19 163.273ZM182.454 156.883V156.213H184.404V155.023H185.144V156.213H187.554V155.023H188.304V156.213H190.334V156.883H188.304V158.233H190.934V158.913H188.353C188.981 159.818 190.028 160.633 191.084 161.033C190.904 161.183 190.664 161.483 190.544 161.683C189.857 161.373 189.187 160.88 188.614 160.292V162.163H184.674V162.883C184.674 163.273 184.834 163.353 185.664 163.353H188.594C189.274 163.353 189.374 163.183 189.444 162.173C189.624 162.303 189.944 162.403 190.154 162.453C190.034 163.713 189.764 164.043 188.624 164.043H185.664C184.324 164.043 183.944 163.823 183.944 162.883V160.5C183.416 161.015 182.824 161.453 182.224 161.793C182.104 161.663 181.824 161.373 181.654 161.233C182.724 160.711 183.701 159.891 184.314 158.913H181.834V158.233H184.404V156.883H182.454ZM185.144 156.883V158.233H187.554V156.883H185.144ZM187.561 158.913H185.181C185.006 159.224 184.802 159.521 184.577 159.803H184.674H188.177C187.945 159.518 187.737 159.218 187.561 158.913ZM184.674 160.433H187.894V161.523H184.674V160.433ZM103.89 33.2611V34.3211H100.16V36.4811H100.92V35.0311H107.72V36.4811H108.51V34.3211H104.68V33.2611H103.89ZM103.49 35.4811C103.262 35.9746 102.988 36.5324 102.698 37.1011H99.8702V37.8111H102.331C101.863 38.6999 101.383 39.5612 101 40.1911L101.77 40.4011C101.849 40.2674 101.931 40.1237 102.017 39.972C102.657 40.1704 103.329 40.4075 103.989 40.665C103.005 41.2625 101.714 41.6023 100.11 41.8011C100.25 41.9711 100.48 42.3011 100.56 42.4811C102.313 42.2017 103.728 41.7648 104.803 40.996C105.959 41.4852 107.015 42.0159 107.71 42.4811L108.27 41.8611C107.569 41.415 106.545 40.9213 105.435 40.4666C106.114 39.7995 106.614 38.9368 106.932 37.8111H108.75V37.1011H103.547C103.804 36.5966 104.051 36.1018 104.27 35.6511L103.49 35.4811ZM102.345 39.3831C102.612 38.8947 102.899 38.3565 103.182 37.8111H106.074C105.797 38.8163 105.331 39.5814 104.671 40.1652C103.886 39.8671 103.085 39.5969 102.345 39.3831ZM115.34 42.0211V41.1911H117.58V41.9511H118.34V34.2011H114.61V42.0211H115.34ZM115.34 40.4711H117.58V34.9111H115.34V40.4711ZM114.2 33.9411C113.727 34.1179 113.143 34.2731 112.52 34.4052V36.2211H114.27V36.9211H112.52V37.1829C112.905 37.5873 113.954 38.8192 114.2 39.1311L113.74 39.7411C113.512 39.364 112.956 38.6072 112.52 38.0434V42.4511H111.77V38.0068C111.277 39.1768 110.618 40.3297 109.97 41.0211C109.89 40.8111 109.7 40.5111 109.57 40.3311C110.32 39.5631 111.134 38.1891 111.585 36.9211H109.81V36.2211H111.77V34.5504C111.212 34.6491 110.646 34.7297 110.12 34.7911C110.08 34.6211 109.99 34.3711 109.9 34.2011C111.23 34.0211 112.82 33.7211 113.69 33.3611L114.2 33.9411ZM125.01 42.4411V42.0811H127.53V42.4111H128.25V39.1027C128.355 39.1546 128.461 39.2041 128.57 39.2511C128.67 39.0611 128.88 38.7711 129.04 38.6311C128.134 38.2861 127.366 37.7573 126.741 37.1511C127.375 36.4028 127.893 35.5059 128.22 34.4611L127.74 34.2611L127.6 34.2911H127.47H125.662C125.784 34.0109 125.894 33.7231 125.99 33.4311L125.27 33.2611C124.901 34.4559 124.239 35.5942 123.45 36.3458V33.6811H120.2V36.7611H121.61V40.828C121.341 40.8897 121.079 40.949 120.83 41.0045V37.7011H120.2V41.1425C120.015 41.1822 119.841 41.2186 119.68 41.2511L119.82 41.9811C120.283 41.8666 120.821 41.7346 121.396 41.5936C122.125 41.4147 122.914 41.2213 123.68 41.0311L123.61 40.3611C123.17 40.4649 122.725 40.5697 122.29 40.6709V38.8811H123.359C123.494 39.0262 123.645 39.2297 123.72 39.3711C123.921 39.2853 124.122 39.1903 124.32 39.0859V42.4411H125.01ZM125.01 41.4211H127.53V39.4911H125.01V41.4211ZM126.278 37.652C126.709 38.0931 127.206 38.5016 127.772 38.8411H124.753C125.291 38.5154 125.808 38.1189 126.278 37.652ZM127.282 34.9411C127.026 35.5582 126.673 36.1262 126.256 36.6321C125.837 36.1402 125.504 35.6201 125.258 35.1198C125.278 35.0838 125.297 35.0477 125.316 35.0113C125.329 34.988 125.341 34.9646 125.353 34.9411H127.282ZM125.808 37.1266C125.436 36.6728 125.128 36.201 124.884 35.7459C124.601 36.1803 124.292 36.5689 123.97 36.8911C123.865 36.7769 123.628 36.5778 123.45 36.4565V36.7611H122.29V38.2111H123.54V38.6945C124.342 38.345 125.133 37.8083 125.808 37.1266ZM120.87 34.3411H122.75V36.1011H120.87V34.3411ZM129.75 37.3511V38.1711H138.9V37.3511H129.75ZM143.99 37.7011V38.3911H144.916L144.41 38.5311C144.717 39.3618 145.143 40.0855 145.685 40.6897C144.962 41.2195 144.116 41.595 143.22 41.8211C143.37 41.9911 143.55 42.2911 143.63 42.4811C144.575 42.2044 145.457 41.7919 146.215 41.2111C146.852 41.7626 147.612 42.1806 148.49 42.4511C148.6 42.2511 148.81 41.9511 148.99 41.8011C148.144 41.5751 147.403 41.2077 146.785 40.7198C147.536 39.9899 148.123 39.0509 148.47 37.8611L147.98 37.6711L147.85 37.7011H147.71H143.99ZM146.241 40.2277C145.74 39.7078 145.347 39.09 145.076 38.3911H147.513C147.215 39.1109 146.777 39.7221 146.241 40.2277ZM143.49 35.8611H141.18V34.7089C142.122 34.4825 143.152 34.1701 143.89 33.8011L143.25 33.2711C142.704 33.5806 141.76 33.9149 140.879 34.1534L140.47 34.0211V40.1307C140.168 40.1793 139.888 40.2233 139.64 40.2611L139.77 41.0011L139.775 41.0003L140.47 40.8738V42.4511H141.18V40.7445C142.025 40.5906 142.963 40.4189 143.87 40.2511L143.84 39.5611C142.935 39.7198 142.006 39.8785 141.18 40.0148V38.4911H143.58V37.7811H141.18V36.5711H143.49V35.8611ZM145.27 34.3511H146.84V36.1111C146.84 36.6711 146.9 36.8411 147.04 36.9611C147.18 37.0911 147.41 37.1411 147.61 37.1411H148.12C148.28 37.1411 148.48 37.1111 148.59 37.0411C148.73 36.9811 148.83 36.8711 148.89 36.7111C148.94 36.5411 148.97 36.1011 148.99 35.7011C148.8 35.6411 148.55 35.5311 148.42 35.4011C148.41 35.8111 148.4 36.1311 148.37 36.2711C148.35 36.3911 148.31 36.4711 148.27 36.4911C148.23 36.5211 148.14 36.5311 148.05 36.5311H147.77C147.69 36.5311 147.64 36.5211 147.61 36.4911C147.56 36.4511 147.55 36.3411 147.55 36.1511V33.6811H147.26H146.84H145.27H144.91H144.57V35.1011C144.57 35.7711 144.45 36.5011 143.54 37.0511C143.69 37.1511 143.96 37.4211 144.06 37.5611C145.07 36.9311 145.27 35.9411 145.27 35.1211V34.3511ZM152.62 34.3884V41.6611H151.739V35.3117H151.697L149.921 36.4906V35.5958L151.739 34.3884H152.62ZM157.268 34.3884V41.6611H156.388V35.3117H156.345L154.569 36.4906V35.5958L156.388 34.3884H157.268ZM159.587 41.6611L162.84 35.2264V35.1696H159.09V34.3884H163.749V35.2122L160.51 41.6611H159.587ZM165.4 34.4511V35.1211H167.35V36.4711H164.78V37.1511H167.26C166.647 38.1296 165.671 38.9491 164.6 39.4711C164.77 39.6111 165.05 39.9011 165.17 40.0311C165.77 39.6911 166.362 39.2536 166.89 38.7386V41.1211C166.89 42.0611 167.27 42.2811 168.61 42.2811H171.57C172.71 42.2811 172.98 41.9511 173.1 40.6911C172.89 40.6411 172.57 40.5411 172.39 40.4111C172.32 41.4211 172.22 41.5911 171.54 41.5911H168.61C167.78 41.5911 167.62 41.5111 167.62 41.1211V40.4011H171.56V38.5308C172.133 39.1185 172.803 39.6116 173.49 39.9211C173.61 39.7211 173.85 39.4211 174.03 39.2711C172.975 38.872 171.927 38.0561 171.299 37.1511H173.88V36.4711H171.25V35.1211H173.28V34.4511H171.25V33.2611H170.5V34.4511H168.09V33.2611H167.35V34.4511H165.4ZM168.09 36.4711V35.1211H170.5V36.4711H168.09ZM167.523 38.0411C167.748 37.76 167.952 37.4626 168.128 37.1511H170.507C170.683 37.4567 170.891 37.7561 171.123 38.0411H167.62H167.523ZM170.84 38.6711H167.62V39.7611H170.84V38.6711ZM236.111 99.69V99.08H240.741V99.69H236.111ZM235.991 102.47V101.85H240.921V102.47H235.991ZM235.991 103.86V103.24H240.901V103.86H235.991ZM236.611 107.33V107.8H235.891V104.63H241.011V107.77H240.261V107.33H236.611ZM240.261 106.71H236.611V105.24H240.261V106.71ZM235.171 101.09V100.46H241.681V101.09H235.171ZM232.261 102.59C233.271 101.64 234.251 100.15 234.831 98.63L235.541 98.85C235.257 99.5555 234.905 100.259 234.511 100.92V107.78H233.791V102.015C233.435 102.505 233.06 102.951 232.681 103.33C232.611 103.16 232.401 102.77 232.261 102.59ZM233.051 112.25V111.66H235.116C234.979 111.394 234.772 111.078 234.571 110.84L235.211 110.61C235.511 110.91 235.791 111.34 235.921 111.63L235.847 111.66H238.238C238.446 111.36 238.692 110.896 238.831 110.58L239.621 110.79C239.429 111.097 239.214 111.409 239.025 111.66H241.101V112.25H237.441V112.87H240.561V113.43H237.441V114.07H241.521V114.67H232.621V114.07H236.671V113.43H233.591V112.87H236.671V112.25H233.051ZM232.611 116.89V116.3H234.741V115.608C234.123 115.673 233.492 115.721 232.911 115.75C232.891 115.6 232.801 115.39 232.731 115.25C234.101 115.17 235.741 114.99 236.641 114.77L237.101 115.24C236.639 115.349 236.075 115.444 235.471 115.523V116.3H237.662C237.563 115.84 237.498 115.347 237.471 114.83H238.191C238.216 115.354 238.286 115.847 238.393 116.3H241.551V116.89H238.561C238.696 117.294 238.862 117.654 239.052 117.961C239.48 117.68 239.847 117.362 240.121 117.01L240.771 117.23C240.418 117.693 239.953 118.103 239.423 118.459C239.805 118.882 240.245 119.117 240.701 119.11C240.981 119.1 241.051 118.87 241.101 118.15C241.261 118.29 241.501 118.4 241.681 118.46C241.571 119.52 241.311 119.8 240.661 119.8C239.955 119.8 239.319 119.447 238.804 118.836C238.095 119.23 237.314 119.543 236.551 119.78C236.481 119.63 236.281 119.32 236.151 119.17C236.939 118.969 237.736 118.685 238.434 118.321C238.183 117.911 237.973 117.429 237.813 116.89H235.471V117.557C236.055 117.511 236.661 117.462 237.261 117.41V117.95C236.663 118.007 236.058 118.065 235.471 118.119V119.06C235.471 119.45 235.371 119.62 235.081 119.71C234.781 119.8 234.311 119.81 233.551 119.81C233.511 119.63 233.411 119.38 233.321 119.21C233.871 119.23 234.401 119.23 234.541 119.22C234.691 119.22 234.741 119.18 234.741 119.04V118.188C233.963 118.26 233.24 118.326 232.641 118.38L232.571 117.77C233.161 117.729 233.914 117.676 234.741 117.613V116.89H232.611ZM240.551 116.2C240.201 115.9 239.511 115.5 238.941 115.27L239.351 114.81C239.921 115.03 240.621 115.39 240.981 115.7L240.551 116.2ZM237.771 131.42V131.78H237.081V128.425C236.882 128.529 236.682 128.624 236.481 128.71C236.406 128.569 236.255 128.365 236.12 128.22H235.051V130.01C235.485 129.909 235.931 129.804 236.371 129.7L236.441 130.37C235.675 130.56 234.886 130.753 234.157 130.932C233.582 131.073 233.043 131.205 232.581 131.32L232.441 130.59C232.601 130.558 232.776 130.521 232.961 130.481V127.04H233.591V130.343C233.84 130.288 234.101 130.229 234.371 130.167V126.1H232.961V123.02H236.211V125.685C237 124.933 237.662 123.795 238.031 122.6L238.751 122.77C238.654 123.062 238.544 123.35 238.423 123.63H240.231H240.361L240.501 123.6L240.981 123.8C240.654 124.845 240.135 125.742 239.502 126.49C240.126 127.096 240.894 127.625 241.801 127.97C241.641 128.11 241.431 128.4 241.331 128.59C241.222 128.543 241.115 128.493 241.011 128.442V131.75H240.291V131.42H237.771ZM240.291 130.76H237.771V128.83H240.291V130.76ZM240.533 128.18C239.967 127.84 239.469 127.432 239.039 126.991C238.569 127.458 238.052 127.854 237.514 128.18H240.533ZM239.016 125.971C239.434 125.465 239.786 124.897 240.042 124.28H238.114C238.083 124.34 238.051 124.4 238.019 124.459C238.265 124.959 238.598 125.479 239.016 125.971ZM237.645 125.085C237.889 125.54 238.196 126.012 238.569 126.466C237.894 127.147 237.103 127.684 236.301 128.033V127.55H235.051V126.1H236.211V125.795C236.389 125.917 236.625 126.116 236.731 126.23C237.053 125.908 237.362 125.519 237.645 125.085ZM235.511 125.44V123.68H233.631V125.44H235.511ZM232.971 143.52V135.52H241.201V143.44H240.411V142.81H233.721V143.52H232.971ZM233.721 142.08H240.411V136.25H238.371V139.19C238.371 139.39 238.391 139.5 238.451 139.53C238.521 139.56 238.611 139.58 238.721 139.58H239.191C239.321 139.58 239.461 139.57 239.521 139.54C239.591 139.51 239.651 139.44 239.671 139.3C239.711 139.15 239.721 138.82 239.731 138.38C239.871 138.5 240.121 138.63 240.311 138.69C240.291 139.1 240.261 139.57 240.191 139.75C240.131 139.93 240.021 140.04 239.851 140.12C239.701 140.18 239.441 140.21 239.241 140.21H238.561C238.331 140.21 238.061 140.16 237.891 140.03C237.711 139.9 237.641 139.73 237.641 139.12V136.25H236.328C236.216 138.363 235.896 139.928 234.351 140.84C234.261 140.66 234.041 140.41 233.871 140.29C235.255 139.517 235.509 138.115 235.59 136.25H233.721V142.08ZM236.751 151.73V151.04H240.471H240.611L240.741 151.01L241.231 151.2C240.884 152.39 240.296 153.329 239.545 154.059C240.164 154.547 240.904 154.914 241.751 155.14C241.571 155.29 241.361 155.59 241.251 155.79C240.373 155.519 239.613 155.102 238.976 154.55C238.217 155.131 237.336 155.543 236.391 155.82C236.311 155.63 236.131 155.33 235.981 155.16C236.876 154.934 237.723 154.558 238.446 154.029C237.904 153.424 237.477 152.701 237.171 151.87L237.676 151.73H236.751ZM237.836 151.73C238.108 152.429 238.5 153.047 239.001 153.567C239.537 153.061 239.976 152.45 240.274 151.73H237.836ZM233.941 149.91H236.251V149.2H233.941V148.048C234.883 147.821 235.913 147.509 236.651 147.14L236.011 146.61C235.465 146.919 234.521 147.254 233.639 147.492L233.231 147.36V153.47C232.928 153.518 232.649 153.562 232.401 153.6L232.531 154.34C232.748 154.3 232.983 154.258 233.231 154.213V155.79H233.941V154.083C234.785 153.929 235.723 153.758 236.631 153.59L236.601 152.9C235.696 153.059 234.766 153.217 233.941 153.354V151.83H236.341V151.12H233.941V149.91ZM239.601 147.69H238.031V148.46C238.031 149.28 237.831 150.27 236.821 150.9C236.721 150.76 236.451 150.49 236.301 150.39C237.211 149.84 237.331 149.11 237.331 148.44V147.02H237.671H238.031H239.601H240.021H240.311V149.49C240.311 149.68 240.321 149.79 240.371 149.83C240.401 149.86 240.451 149.87 240.531 149.87H240.811C240.901 149.87 240.991 149.86 241.031 149.83C241.071 149.81 241.111 149.73 241.131 149.61C241.161 149.47 241.171 149.15 241.181 148.74C241.311 148.87 241.561 148.98 241.751 149.04C241.731 149.44 241.701 149.88 241.651 150.05C241.591 150.21 241.491 150.32 241.351 150.38C241.241 150.45 241.041 150.48 240.881 150.48H240.371C240.171 150.48 239.941 150.43 239.801 150.3C239.661 150.18 239.601 150.01 239.601 149.45V147.69ZM235.844 178.858C236.211 179.019 236.629 179.099 237.097 179.099C237.568 179.099 237.989 179.009 238.358 178.83C238.727 178.65 239.019 178.403 239.232 178.091C239.447 177.776 239.555 177.421 239.555 177.026C239.555 176.564 239.426 176.177 239.168 175.864C238.91 175.549 238.551 175.354 238.092 175.278V175.222C238.459 175.11 238.749 174.91 238.962 174.621C239.177 174.333 239.285 173.983 239.285 173.574C239.285 173.231 239.198 172.911 239.026 172.615C238.853 172.319 238.605 172.081 238.283 171.901C237.961 171.719 237.576 171.628 237.126 171.628C236.707 171.628 236.322 171.708 235.972 171.869C235.624 172.03 235.342 172.255 235.126 172.544C234.911 172.83 234.796 173.164 234.782 173.545H235.634C235.646 173.304 235.722 173.098 235.862 172.928C236.001 172.755 236.181 172.623 236.401 172.533C236.624 172.441 236.861 172.395 237.112 172.395C237.379 172.395 237.611 172.446 237.808 172.548C238.006 172.649 238.16 172.791 238.269 172.974C238.378 173.156 238.433 173.37 238.433 173.616C238.433 173.872 238.37 174.095 238.244 174.284C238.121 174.473 237.95 174.62 237.729 174.724C237.512 174.829 237.258 174.881 236.97 174.881H236.387V175.662H236.97C237.339 175.662 237.651 175.72 237.907 175.836C238.163 175.952 238.357 176.113 238.489 176.319C238.622 176.522 238.688 176.758 238.688 177.026C238.688 177.281 238.62 177.506 238.482 177.7C238.345 177.894 238.156 178.046 237.914 178.155C237.673 178.264 237.396 178.318 237.083 178.318C236.804 178.318 236.549 178.272 236.32 178.18C236.09 178.087 235.904 177.957 235.762 177.789C235.62 177.619 235.54 177.416 235.521 177.182H234.626C234.645 177.563 234.761 177.898 234.974 178.187C235.189 178.473 235.479 178.697 235.844 178.858ZM237.914 183.798C237.615 183.687 237.317 183.63 237.019 183.628C236.526 183.621 236.098 183.727 235.733 183.947C235.371 184.168 235.089 184.464 234.888 184.835C234.689 185.205 234.59 185.612 234.59 186.057C234.59 186.526 234.693 186.942 234.899 187.307C235.107 187.669 235.384 187.954 235.73 188.163C236.078 188.369 236.46 188.472 236.877 188.472C237.128 188.472 237.364 188.433 237.587 188.354C237.81 188.276 238.012 188.165 238.194 188.021C238.377 187.876 238.534 187.705 238.667 187.506H238.723C238.723 188.401 238.56 189.093 238.233 189.583C237.909 190.073 237.466 190.318 236.905 190.318C236.522 190.318 236.213 190.21 235.978 189.995C235.746 189.777 235.591 189.501 235.513 189.168H234.647C234.703 189.551 234.832 189.888 235.034 190.18C235.237 190.469 235.498 190.695 235.815 190.858C236.135 191.019 236.498 191.099 236.905 191.099C237.315 191.099 237.682 191.011 238.006 190.833C238.333 190.656 238.61 190.395 238.837 190.052C239.067 189.709 239.242 189.287 239.363 188.788C239.486 188.286 239.547 187.712 239.547 187.065C239.547 186.398 239.473 185.843 239.323 185.4C239.174 184.957 238.977 184.608 238.73 184.352C238.484 184.094 238.212 183.91 237.914 183.798ZM236.213 184.633C236.452 184.484 236.72 184.409 237.019 184.409C237.322 184.409 237.592 184.486 237.828 184.64C238.068 184.794 238.255 184.995 238.39 185.244C238.527 185.492 238.595 185.759 238.595 186.043C238.595 186.258 238.554 186.465 238.471 186.664C238.388 186.861 238.274 187.037 238.127 187.193C237.982 187.347 237.813 187.469 237.619 187.559C237.425 187.647 237.215 187.69 236.99 187.69C236.692 187.69 236.426 187.618 236.191 187.474C235.959 187.327 235.776 187.13 235.641 186.884C235.508 186.636 235.442 186.36 235.442 186.057C235.442 185.754 235.511 185.478 235.648 185.229C235.788 184.978 235.976 184.78 236.213 184.633ZM233.151 196.46V195.79H235.101V194.6H235.841V195.79H238.251V194.6H239.001V195.79H241.031V196.46H239.001V197.81H241.631V198.49H239.05C239.678 199.395 240.725 200.211 241.781 200.61C241.601 200.76 241.361 201.06 241.241 201.26C240.554 200.951 239.884 200.457 239.311 199.87V201.74H235.371V202.46C235.371 202.85 235.531 202.93 236.361 202.93H239.291C239.971 202.93 240.071 202.76 240.141 201.75C240.321 201.88 240.641 201.98 240.851 202.03C240.731 203.29 240.461 203.62 239.321 203.62H236.361C235.021 203.62 234.641 203.4 234.641 202.46V200.077C234.113 200.592 233.521 201.03 232.921 201.37C232.801 201.24 232.521 200.95 232.351 200.81C233.421 200.288 234.398 199.468 235.011 198.49H232.531V197.81H235.101V196.46H233.151ZM235.841 196.46V197.81H238.251V196.46H235.841ZM238.258 198.49H235.878C235.702 198.801 235.499 199.099 235.274 199.38H235.371H238.874C238.642 199.095 238.434 198.796 238.258 198.49ZM235.371 200.01H238.591V201.1H235.371V200.01Z" fill="#332A28"/>
<path fill-rule="evenodd" clip-rule="evenodd" d="M140.245 89.1639L140 89.9296L144.288 89.8377L157.611 89.9296L160 83.4058H159.204C158.489 85.2639 157.57 86.683 156.447 87.6631C155.324 88.6432 153.885 89.1332 152.129 89.1332H149.832C148.709 89.1332 147.922 89.0107 147.473 88.7657C147.056 88.519 146.832 88.1311 146.803 87.602C147.081 87.6275 147.367 87.6401 147.66 87.6401C148.533 87.6401 149.291 87.5253 149.934 87.2956C150.577 87.0505 151.098 86.8285 151.496 86.6294C151.68 86.5375 151.841 86.4609 151.978 86.3997C152.132 86.3384 152.262 86.3078 152.369 86.3078C152.568 86.3078 152.706 86.3997 152.782 86.5835C152.874 86.7519 152.951 86.9357 153.012 87.1348L153.081 87.3874H153.632L153.563 84.6998L153.609 81.8974H153.058C152.966 82.8162 152.691 83.6585 152.231 84.4242C151.787 85.1899 151.197 85.8024 150.462 86.2619C149.727 86.7213 148.862 86.951 147.867 86.951C147.509 86.951 147.17 86.9289 146.851 86.8847C146.876 86.7262 146.91 86.5569 146.953 86.3767C147.075 85.9479 147.228 85.4579 147.412 84.9066L151.372 72.7921C152.224 73.6627 152.763 74.8831 152.989 76.4533H153.563L153.517 73.7657L153.563 71.0781H152.989C152.958 71.3997 152.89 71.6294 152.782 71.7672C152.675 71.8897 152.537 71.951 152.369 71.951C152.308 71.951 152.193 71.9204 152.024 71.8591C151.931 71.8167 151.833 71.772 151.73 71.7249C151.959 71.102 152.194 70.6056 152.435 70.2358C152.741 69.7662 153.129 69.4293 153.599 69.2251C154.068 69.0209 154.671 68.8882 155.406 68.827L156.049 68.7657L156.294 68L151.73 68.0919L147.167 68L146.922 68.7657L147.504 68.827C148.341 68.9086 148.933 69.0209 149.28 69.1639C149.627 69.2864 149.801 69.5314 149.801 69.8989C149.801 70.1031 149.74 70.3788 149.617 70.7259L149.552 70.923C149.055 70.812 148.47 70.7565 147.798 70.7565C146.741 70.7565 145.746 70.9709 144.811 71.3997C143.893 71.8132 143.081 72.4028 142.377 73.1685C141.672 73.9341 141.121 74.83 140.723 75.856C140.324 76.8821 140.125 78.0077 140.125 79.2328C140.125 80.8714 140.424 82.3262 141.021 83.5972C141.634 84.853 142.499 85.8407 143.617 86.5605C143.832 86.697 144.055 86.8206 144.285 86.9312L144.135 87.3874C143.992 87.8162 143.808 88.143 143.583 88.3675C143.359 88.5718 143.032 88.7249 142.603 88.827C142.195 88.929 141.623 89.0209 140.888 89.1026L140.245 89.1639ZM144.6 85.9721L149.323 71.6185C148.875 71.5033 148.39 71.4456 147.867 71.4456C146.856 71.4456 146.006 71.6524 145.317 72.0658C144.628 72.464 144.076 73.023 143.663 73.7427C143.249 74.4472 142.943 75.2741 142.744 76.2236C142.56 77.1577 142.468 78.1608 142.468 79.2328C142.468 80.8407 142.637 82.219 142.974 83.3675C143.315 84.4799 143.857 85.3481 144.6 85.9721Z" fill="#322A28"/>
</svg>
